<svg xmlns="http://www.w3.org/2000/svg" viewBox="0 0 277.42 277.42" height="100%" width="100%"><defs><style>.a,.c,.d,.e,.f,.g,.h,.i,.j,.k,.l,.m{fill:#3fc2ed;}.b{fill:#fff;}.c,.d,.e,.f,.g{opacity:0.88;}.c,.d,.e,.f,.g,.h,.i,.j,.k,.l,.m{isolation:isolate;font-family:Arial-BoldMT, Arial;font-weight:700;}.c,.e,.f,.h,.j{font-size:35px;}.d{font-size:34.95px;}.e{letter-spacing:-0.02em;}.f,.j{letter-spacing:-0.04em;}.g{font-size:34.85px;}.i{font-size:35.09px;}.k{font-size:35.15px;}.l{font-size:35px;letter-spacing:-0.04em;}.m{font-size:35.06px;}</style></defs><title>BOODMO-GENUINE-ooo</title><circle class="a" cx="138.71" cy="138.71" r="138.71"/><circle class="b" cx="138.71" cy="138.71" r="130.66"/><text class="c" transform="translate(46.75 117.01) rotate(-68.93)">G</text><text class="c" transform="matrix(0.56, -0.83, 0.83, 0.56, 55.47, 95.25)">E</text><text class="c" transform="matrix(0.73, -0.68, 0.68, 0.73, 65.37, 79.96)">N</text><text class="d" transform="translate(82.51 63.8) rotate(-29.39)">U</text><text class="c" transform="matrix(0.95, -0.33, 0.33, 0.95, 103.38, 52.88)">I</text><text class="c" transform="translate(112.38 49.1) rotate(-8.84)">N</text><text class="c" transform="translate(135.75 45.71) rotate(3.89)">E</text><text class="e" transform="matrix(0.94, 0.34, -0.34, 0.94, 161.22, 48.31)">P</text><text class="f" transform="matrix(0.85, 0.52, -0.52, 0.85, 178.16, 54.04)">A</text><text class="c" transform="matrix(0.71, 0.7, -0.7, 0.71, 197.27, 65.8)">R</text><text class="g" transform="matrix(0.55, 0.83, -0.83, 0.55, 211.73, 80.05)">T</text><text class="c" transform="translate(222.04 95.43) rotate(67.4)">S</text><circle class="a" cx="138.71" cy="139.98" r="82.55"/><text class="h" transform="translate(40.16 202.93) rotate(52.75)">G</text><text class="i" transform="translate(57.71 225.1) rotate(38.93)">U</text><text class="j" transform="translate(79.04 241.67) rotate(25.51)">A</text><text class="k" transform="translate(103.74 252.8) rotate(12.65)">R</text><text class="l" transform="matrix(1, -0.01, 0.01, 1, 128.47, 257.85)">A</text><text class="m" transform="translate(155.79 257.08) rotate(-14.45)">N</text><text class="h" transform="translate(182.93 249.28) rotate(-27.47)">T</text><text class="h" transform="matrix(0.78, -0.63, 0.63, 0.78, 203, 238.41)">E</text><text class="h" transform="matrix(0.65, -0.76, 0.76, 0.65, 220.17, 224.18)">E</text><path class="b" d="M119.49,187.79,81.16,146.18a1.92,1.92,0,0,1,.1-2.71h0l18.17-16.73a1.92,1.92,0,0,1,2.71.1l20.17,21.64a1.92,1.92,0,0,0,2.7.11l53-48.24a1.92,1.92,0,0,1,2.71.12h0l15.55,17.13a1.92,1.92,0,0,1-.13,2.71l-73.93,67.56a1.92,1.92,0,0,1-2.71-.07Z"/></svg>